HIERARCHY
ROOT joint_Root
{
	OFFSET 0.0 0.0 0.0
	CHANNELS 6 Xposition Yposition Zposition Zrotation Xrotation Yrotation 
	JOINT Hips
	{
		OFFSET 4.5925 91.4895 -427.239
		CHANNELS 6 Xposition Yposition Zposition Zrotation Xrotation Yrotation 
		JOINT Spine
		{
			OFFSET 15.7357 0.0 0.0
			CHANNELS 6 Xposition Yposition Zposition Zrotation Xrotation Yrotation 
			JOINT Chest
			{
				OFFSET 8.98455 -0.406207 0.0
				CHANNELS 6 Xposition Yposition Zposition Zrotation Xrotation Yrotation 
				JOINT Neck
				{
					OFFSET 16.3773 0.0 0.0
					CHANNELS 6 Xposition Yposition Zposition Zrotation Xrotation Yrotation 
					JOINT Head
					{
						OFFSET 6.45672 0.0 0.0
						CHANNELS 6 Xposition Yposition Zposition Zrotation Xrotation Yrotation 
						End Site
						{
							OFFSET 0.0 0.0 0.0
						}
					}
				}
				JOINT Shoulder_L
				{
					OFFSET 12.9942 -0.242716 4.98039
					CHANNELS 6 Xposition Yposition Zposition Zrotation Xrotation Yrotation 
					JOINT UpperArm_L
					{
						OFFSET 5.34809 0.0 0.0
						CHANNELS 6 Xposition Yposition Zposition Zrotation Xrotation Yrotation 
						JOINT LowerArm_L
						{
							OFFSET 24.3286 1.87007e-05 0.0
							CHANNELS 6 Xposition Yposition Zposition Zrotation Xrotation Yrotation 
							JOINT Hand_L
							{
								OFFSET 22.2916 0.0 0.0
								CHANNELS 6 Xposition Yposition Zposition Zrotation Xrotation Yrotation 
								End Site
								{
									OFFSET 0.0 0.0 0.0
								}
							}
						}
					}
				}
				JOINT Shoulder_R
				{
					OFFSET 12.9945 -0.242716 -4.98039
					CHANNELS 6 Xposition Yposition Zposition Zrotation Xrotation Yrotation 
					JOINT UpperArm_R
					{
						OFFSET -5.34813 0.0 0.0
						CHANNELS 6 Xposition Yposition Zposition Zrotation Xrotation Yrotation 
						JOINT LowerArm_R
						{
							OFFSET -24.3289 0.000322201 0.0
							CHANNELS 6 Xposition Yposition Zposition Zrotation Xrotation Yrotation 
							JOINT Hand_R
							{
								OFFSET -22.2915 -0.000108084 0.0
								CHANNELS 6 Xposition Yposition Zposition Zrotation Xrotation Yrotation 
								End Site
								{
									OFFSET 0.0 0.0 0.0
								}
							}
						}
					}
				}
			}
		}
		JOINT UpperLeg_L
		{
			OFFSET -2.19248 -6.46944 0.0
			CHANNELS 6 Xposition Yposition Zposition Zrotation Xrotation Yrotation 
			JOINT LowerLeg_L
			{
				OFFSET 39.0811 0.0 -1.23785e-05
				CHANNELS 6 Xposition Yposition Zposition Zrotation Xrotation Yrotation 
				JOINT Foot_L
				{
					OFFSET 40.9854 0.0 -1.26872e-05
					CHANNELS 6 Xposition Yposition Zposition Zrotation Xrotation Yrotation 
					JOINT Toes_L
					{
						OFFSET 11.7543 0.0 0.0
						CHANNELS 6 Xposition Yposition Zposition Zrotation Xrotation Yrotation 
						End Site
						{
							OFFSET 0.0 0.0 0.0
						}
					}
				}
			}
		}
		JOINT UpperLeg_R
		{
			OFFSET -2.19251 6.46944 0.0
			CHANNELS 6 Xposition Yposition Zposition Zrotation Xrotation Yrotation 
			JOINT LowerLeg_R
			{
				OFFSET -39.0811 -0.00228153 -0.0401928
				CHANNELS 6 Xposition Yposition Zposition Zrotation Xrotation Yrotation 
				JOINT Foot_R
				{
					OFFSET -40.9854 0.0 0.0
					CHANNELS 6 Xposition Yposition Zposition Zrotation Xrotation Yrotation 
					JOINT Toes_R
					{
						OFFSET -11.7543 0.0 0.0
						CHANNELS 6 Xposition Yposition Zposition Zrotation Xrotation Yrotation 
						End Site
						{
							OFFSET 0.0 0.0 0.0
						}
					}
				}
			}
		}
	}
}
MOTION
Frames:	8
Frame Time:	0.0333333
0.000000 0.000000 0.000000 0.000000 0.000000 -0.000000 -9.840690 84.032200 511.468000 -88.121600 15.586800 -179.276000 15.735700 0.000005 -0.000001 107.401000 84.672900 -109.072000 8.984550 -0.406207 -0.000000 2.453970 3.261030 -3.409220 16.377300 -0.000001 -0.000001 -3.545500 -5.500400 -1.164460 6.456720 -0.000001 -0.000000 -10.095100 -8.478220 -6.940040 12.994200 -0.242716 4.980390 -91.589500 4.676230 -71.203000 5.348090 -0.000007 -0.000001 -70.561400 25.237600 0.908157 24.328600 0.000019 0.000005 6.531860 23.498600 -16.023800 22.291600 -0.000001 0.000005 8.764320 5.175940 3.320070 12.994500 -0.242716 -4.980390 89.193700 5.737240 -81.986500 -5.348130 -0.000001 -0.000004 -66.866700 30.519200 -20.109700 -24.328900 0.000322 -0.000009 -2.850990 -2.220280 -52.130800 -22.291500 -0.000108 -0.000004 25.626100 5.483140 -5.870710 -2.192480 -6.469440 -0.000000 -173.495000 -6.271240 -18.234200 39.081100 -0.000007 -0.000012 -0.496580 0.342231 55.427400 40.985400 -0.000006 -0.000013 -2.560910 2.174100 -85.859100 11.754300 -0.000000 0.000003 -0.000670 -0.005081 -16.761000 -2.192510 6.469440 -0.000001 171.557000 2.178110 178.903000 -39.081100 -0.002282 -0.040193 0.204493 -0.114182 60.436500 -40.985400 0.000008 0.000006 4.675790 -1.129430 -58.342000 -11.754300 -0.000006 -0.000006 -0.029118 -0.213392 -25.313200
0.000000 0.000000 0.000000 0.000000 0.000000 -0.000000 -9.680290 84.889800 508.446000 -87.987700 14.993400 -178.294000 15.735700 0.000005 -0.000001 100.911000 84.609600 -102.428000 8.984550 -0.406207 -0.000000 2.851160 2.103720 -3.083860 16.377300 -0.000001 -0.000001 -3.255440 -5.248880 -1.427750 6.456720 -0.000001 -0.000000 -9.766290 -7.451210 -7.570590 12.994200 -0.242716 4.980390 -91.512100 4.604650 -71.798300 5.348090 -0.000007 -0.000001 -67.351400 26.635500 -3.451140 24.328600 0.000019 0.000005 6.869240 21.006400 -18.577500 22.291600 -0.000001 0.000005 10.169500 5.201080 2.692160 12.994500 -0.242716 -4.980390 89.159000 5.777180 -81.703100 -5.348130 -0.000001 -0.000004 -67.798000 31.605600 -18.982800 -24.328900 0.000322 -0.000009 -3.083180 -2.873000 -47.044000 -22.291500 -0.000108 -0.000004 25.036500 5.466820 -5.243400 -2.192480 -6.469440 -0.000000 -173.498000 -6.130980 -12.884500 39.081100 -0.000007 -0.000012 -0.366321 0.293596 51.289700 40.985400 -0.000006 -0.000013 -1.685220 2.519820 -86.148200 11.754300 -0.000000 0.000003 -0.198111 -0.279580 -16.561200 -2.192510 6.469440 -0.000001 172.334000 4.262850 174.943000 -39.081100 -0.002282 -0.040193 0.241890 -0.100266 67.219200 -40.985400 0.000008 0.000006 6.252910 -5.617540 -58.783400 -11.754300 -0.000006 -0.000006 -0.022124 -0.178780 -23.881600
0.000000 0.000000 0.000000 0.000000 0.000000 -0.000000 -9.383000 85.958700 505.638000 -87.498700 14.224100 -177.752000 15.735700 0.000005 -0.000001 95.451700 84.534900 -96.646000 8.984550 -0.406207 -0.000000 3.127560 1.085660 -2.415810 16.377300 -0.000001 -0.000001 -3.036070 -5.323380 -1.716100 6.456720 -0.000001 -0.000000 -9.535330 -7.055110 -7.953380 12.994200 -0.242716 4.980390 -91.494600 4.747510 -72.502800 5.348090 -0.000007 -0.000001 -63.135700 27.623600 -9.113230 24.328600 0.000019 0.000005 6.735300 19.451100 -19.526700 22.291600 -0.000001 0.000005 10.464900 5.216580 2.299970 12.994500 -0.242716 -4.980390 89.063200 6.107630 -81.262500 -5.348130 -0.000001 -0.000004 -67.796800 33.079400 -17.220800 -24.328900 0.000322 -0.000009 -1.974680 -2.195280 -41.955500 -22.291500 -0.000108 -0.000004 21.983400 5.450320 -4.644110 -2.192480 -6.469440 -0.000000 -173.487000 -5.437110 -7.895120 39.081100 -0.000007 -0.000012 0.019370 -0.018405 46.458500 40.985400 -0.000006 -0.000013 0.702084 1.568110 -85.615000 11.754300 -0.000000 0.000003 -1.545240 -2.108190 -15.626800 -2.192510 6.469440 -0.000001 173.522000 7.732110 170.789000 -39.081100 -0.002282 -0.040193 0.263047 -0.092152 70.480100 -40.985400 0.000008 0.000006 6.808260 -8.098960 -59.442200 -11.754300 -0.000006 -0.000006 -0.019564 -0.164861 -23.307900
0.000000 0.000000 0.000000 0.000000 0.000000 -0.000000 -9.093570 87.068000 503.115000 -87.067300 13.395400 -178.087000 15.735700 0.000005 -0.000001 90.954000 84.678900 -91.855900 8.984550 -0.406207 -0.000000 2.877110 0.215491 -1.807340 16.377300 -0.000001 -0.000001 -2.994660 -5.478060 -1.841180 6.456720 -0.000001 -0.000000 -9.158520 -7.087170 -7.772950 12.994200 -0.242716 4.980390 -91.361000 4.474620 -73.063900 5.348090 -0.000007 -0.000001 -58.997200 27.888300 -15.310500 24.328600 0.000019 0.000005 7.068210 20.065600 -19.869400 22.291600 -0.000001 0.000005 10.692100 5.200340 2.711030 12.994500 -0.242716 -4.980390 88.999400 6.373770 -81.059300 -5.348130 -0.000001 -0.000004 -67.853500 34.694000 -14.503100 -24.328900 0.000322 -0.000009 -1.050410 -1.398430 -36.855400 -22.291500 -0.000108 -0.000004 18.292800 5.436990 -4.176990 -2.192480 -6.469440 -0.000000 -173.401000 -3.983790 -4.424640 39.081100 -0.000007 -0.000012 0.004920 -0.005494 41.831300 40.985400 -0.000006 -0.000013 0.613105 0.879111 -82.799800 11.754300 -0.000000 0.000003 -1.612580 -2.174200 -17.575500 -2.192510 6.469440 -0.000001 175.511000 11.104800 165.977000 -39.081100 -0.002282 -0.040193 0.253090 -0.088863 70.430900 -40.985400 0.000008 0.000006 6.981300 -8.863360 -60.524000 -11.754300 -0.000006 -0.000006 -0.020095 -0.167815 -23.429500
0.000000 0.000000 0.000000 0.000000 0.000000 -0.000000 -8.807890 88.139200 500.813000 -86.760100 12.717300 -179.125000 15.735700 0.000005 -0.000001 87.821000 84.984600 -88.461000 8.984550 -0.406207 -0.000000 2.255880 -0.350341 -1.271800 16.377300 -0.000001 -0.000001 -2.993180 -5.685200 -1.841220 6.456720 -0.000001 -0.000000 -8.970340 -7.263210 -7.352790 12.994200 -0.242716 4.980390 -91.078100 3.680160 -73.661000 5.348090 -0.000007 -0.000001 -56.183900 26.220700 -20.926600 24.328600 0.000019 0.000005 7.847130 21.759600 -20.393400 22.291600 -0.000001 0.000005 10.784300 5.185490 3.080180 12.994500 -0.242716 -4.980390 88.979300 6.449010 -80.986900 -5.348130 -0.000001 -0.000004 -68.558700 36.026500 -11.171100 -24.328900 0.000322 -0.000009 -0.160104 -0.262165 -31.179900 -22.291500 -0.000108 -0.000004 15.793800 5.425060 -3.754830 -2.192480 -6.469440 -0.000000 -173.373000 -3.116040 -2.065790 39.081100 -0.000007 -0.000012 -0.003222 0.004198 37.516300 40.985400 -0.000006 -0.000013 0.582881 0.753308 -79.621400 11.754300 -0.000000 0.000003 -1.577940 -2.022540 -18.476700 -2.192510 6.469440 -0.000001 178.210000 13.206800 160.894000 -39.081100 -0.002282 -0.040193 0.207059 -0.085475 67.258000 -40.985400 0.000008 0.000006 6.373530 -7.310470 -62.776100 -11.754300 -0.000006 -0.000006 -0.020286 -0.168869 -23.473000
0.000000 0.000000 0.000000 0.000000 0.000000 -0.000000 -8.415060 88.958300 498.613000 -86.440400 11.913100 179.614000 15.735700 0.000005 -0.000001 83.795100 85.272100 -84.116600 8.984550 -0.406207 -0.000000 1.631970 -1.004260 -0.628123 16.377300 -0.000001 -0.000001 -3.274460 -5.636450 -1.843170 6.456720 -0.000001 -0.000000 -8.895370 -7.208690 -6.799800 12.994200 -0.242716 4.980390 -90.764400 2.678770 -74.068200 5.348090 -0.000007 -0.000001 -54.663800 23.465200 -25.430300 24.328600 0.000019 0.000005 8.114360 21.297500 -21.432800 22.291600 -0.000001 0.000005 10.865300 5.178110 3.261920 12.994500 -0.242716 -4.980390 88.971500 6.437260 -80.902600 -5.348130 -0.000001 -0.000004 -69.668000 36.528700 -7.599550 -24.328900 0.000322 -0.000009 0.617515 1.302750 -25.471000 -22.291500 -0.000108 -0.000004 13.952400 5.399420 -2.913020 -2.192480 -6.469440 -0.000000 -173.095000 -2.452840 -0.449457 39.081100 -0.000007 -0.000012 -0.005089 0.007520 34.094100 40.985400 -0.000006 -0.000013 0.515596 1.089100 -76.879200 11.754300 -0.000000 0.000003 -1.291740 -1.556560 -18.543100 -2.192510 6.469440 -0.000001 -178.634000 14.264000 156.376000 -39.081100 -0.002282 -0.040193 0.146843 -0.079047 61.177100 -40.985400 0.000008 0.000006 5.302980 -4.868300 -64.352600 -11.754300 -0.000006 -0.000006 -0.020255 -0.168700 -23.466000
0.000000 0.000000 0.000000 0.000000 0.000000 -0.000000 -7.938630 89.416800 496.350000 -86.356900 10.810600 178.353000 15.735700 0.000005 -0.000001 78.372800 85.487000 -78.389400 8.984550 -0.406207 -0.000000 1.075120 -1.817390 -0.015996 16.377300 -0.000001 -0.000001 -3.650310 -5.520670 -1.754280 6.456720 -0.000001 -0.000000 -8.910350 -6.886540 -6.220530 12.994200 -0.242716 4.980390 -90.494300 1.775810 -74.444100 5.348090 -0.000007 -0.000001 -53.895800 20.364000 -28.736800 24.328600 0.000019 0.000005 8.369550 19.812600 -23.465500 22.291600 -0.000001 0.000005 11.544600 5.176270 3.306590 12.994500 -0.242716 -4.980390 88.928900 6.521200 -80.651600 -5.348130 -0.000001 -0.000004 -70.861000 35.285500 -3.914860 -24.328900 0.000322 -0.000009 1.272210 3.494950 -20.071300 -22.291500 -0.000108 -0.000004 12.887000 5.360230 -1.685650 -2.192480 -6.469440 -0.000000 -172.946000 -1.488010 0.624185 39.081100 -0.000007 -0.000012 -0.005641 0.009135 31.699500 40.985400 -0.000006 -0.000013 0.491973 1.288460 -74.706400 11.754300 -0.000000 0.000003 -0.141303 -0.217146 -19.337100 -2.192510 6.469440 -0.000001 -175.750000 15.183200 152.576000 -39.081100 -0.002282 -0.040193 0.094022 -0.068083 53.133200 -40.985400 0.000008 0.000006 3.898750 -1.993490 -63.716600 -11.754300 -0.000006 -0.000006 -0.020468 -0.169868 -23.514100
0.000000 0.000000 0.000000 0.000000 0.000000 -0.000000 -7.325860 89.452900 493.953000 -86.427000 9.309720 177.135000 15.735700 0.000005 -0.000001 71.528900 85.643900 -71.236800 8.984550 -0.406207 -0.000000 0.505648 -2.777890 0.596159 16.377300 -0.000001 -0.000001 -3.819800 -5.376350 -1.587060 6.456720 -0.000001 -0.000000 -8.983250 -6.378680 -5.517110 12.994200 -0.242716 4.980390 -90.315600 1.165730 -74.851400 5.348090 -0.000007 -0.000001 -53.105100 17.620800 -31.216700 24.328600 0.000019 0.000005 8.485740 17.541300 -26.340000 22.291600 -0.000001 0.000005 12.260600 5.181560 3.177380 12.994500 -0.242716 -4.980390 88.830400 6.760090 -80.160300 -5.348130 -0.000001 -0.000004 -71.691600 31.534300 -0.258056 -24.328900 0.000322 -0.000009 1.574670 5.842970 -15.128100 -22.291500 -0.000108 -0.000004 12.858100 5.328800 -0.754359 -2.192480 -6.469440 -0.000000 -172.696000 -0.362143 1.289530 39.081100 -0.000007 -0.000012 -0.007685 0.013111 30.379600 40.985400 -0.000006 -0.000013 0.203918 1.786680 -73.410100 11.754300 -0.000000 0.000003 -0.010676 -0.108630 -21.003600 -2.192510 6.469440 -0.000001 -173.110000 16.065700 149.479000 -39.081100 -0.002282 -0.040193 0.052561 -0.050626 44.236700 -40.985400 0.000008 0.000006 2.726230 0.602837 -62.968600 -11.754300 -0.000006 -0.000006 -0.020794 -0.171649 -23.587500
